HIERARCHY
ROOT Hips
{
	OFFSET -0.001795 -0.223333 0.028219
	CHANNELS 6 Xposition Yposition Zposition Zrotation Yrotation Xrotation 
	JOINT LeftUpLeg
	{
		OFFSET 0.069520 -0.091406 -0.006815
		CHANNELS 3 Zrotation Yrotation Xrotation
		JOINT LeftLeg
		{
			OFFSET 0.034277 -0.375199 -0.004496
			CHANNELS 3 Zrotation Yrotation Xrotation
			JOINT LeftFoot
			{
				OFFSET -0.013596 -0.397961 -0.043693
				CHANNELS 3 Zrotation Yrotation Xrotation
				JOINT LeftToe
				{
					OFFSET 0.026358 -0.055791 0.119288
					CHANNELS 3 Zrotation Yrotation Xrotation
					End Site
					{
						OFFSET 0.000000 0.000000 0.000000
					}
				}
			}
		}
	}
	JOINT RightUpLeg
	{
		OFFSET -0.067670 -0.090522 -0.004320
		CHANNELS 3 Zrotation Yrotation Xrotation
		JOINT RightLeg
		{
			OFFSET -0.038290 -0.382569 -0.008850
			CHANNELS 3 Zrotation Yrotation Xrotation
			JOINT RightFoot
			{
				OFFSET 0.015774 -0.398415 -0.042312
				CHANNELS 3 Zrotation Yrotation Xrotation
				JOINT RightToe
				{
					OFFSET -0.025372 -0.048144 0.123348
					CHANNELS 3 Zrotation Yrotation Xrotation
					End Site
					{
						OFFSET 0.000000 0.000000 0.000000
					}
				}
			}
		}
	}
	JOINT Spine
	{
		OFFSET -0.002533 0.108963 -0.026696
		CHANNELS 3 Zrotation Yrotation Xrotation
		JOINT Spine1
		{
			OFFSET 0.005487 0.135180 0.001092
			CHANNELS 3 Zrotation Yrotation Xrotation
			JOINT Spine2
			{
				OFFSET 0.001457 0.052922 0.025425
				CHANNELS 3 Zrotation Yrotation Xrotation
				JOINT Neck
				{
					OFFSET -0.002778 0.213870 -0.042857
					CHANNELS 3 Zrotation Yrotation Xrotation
					JOINT Head
					{
						OFFSET 0.005152 0.064970 0.051349
						CHANNELS 3 Zrotation Yrotation Xrotation
						End Site
						{
							OFFSET 0.000000 0.000000 0.000000
						}
					}
				}
				JOINT LeftShoulder
				{
					OFFSET 0.078845 0.121749 -0.034090
					CHANNELS 3 Zrotation Yrotation Xrotation
					JOINT LeftArm
					{
						OFFSET 0.090977 0.030469 -0.008868
						CHANNELS 3 Zrotation Yrotation Xrotation
						JOINT LeftForeArm
						{
							OFFSET 0.259612 -0.012772 -0.027456
							CHANNELS 3 Zrotation Yrotation Xrotation
							JOINT LeftHand
							{
								OFFSET 0.249234 0.008986 -0.001171
								CHANNELS 3 Zrotation Yrotation Xrotation
								End Site
								{
									OFFSET 0.000000 0.000000 0.000000
								}
							}
						}
					}
				}
				JOINT RightShoulder
				{
					OFFSET -0.081759 0.118833 -0.038615
					CHANNELS 3 Zrotation Yrotation Xrotation
					JOINT RightArm
					{
						OFFSET -0.096012 0.032551 -0.009143
						CHANNELS 3 Zrotation Yrotation Xrotation
						JOINT RightForeArm
						{
							OFFSET -0.253742 -0.013329 -0.021401
							CHANNELS 3 Zrotation Yrotation Xrotation
							JOINT RightHand
							{
								OFFSET -0.255298 0.007772 -0.005559
								CHANNELS 3 Zrotation Yrotation Xrotation
								End Site
								{
									OFFSET 0.000000 0.000000 0.000000
								}
							}
						}
					}
				}
			}
		}
	}
}
MOTION
Frames: 9
Frame Time: 0.050000
0.000000 0.943953 0.000000 -0.583696 3.662618 -0.593921 0.415242 -0.091852 -0.993976 3.134989 -0.054795 -4.455309 -2.558829 -0.123744 9.725652 0.000000 0.000000 0.000000 -0.325626 0.404013 -4.062960 -0.352067 0.124955 2.090833 -0.293859 -4.640630 10.641326 0.000000 0.000000 0.000000 2.942545 -0.240059 3.308738 -0.855930 0.487874 -2.535375 -3.224544 4.108483 8.152903 8.786062 -3.505075 -16.743025 0.000000 0.000000 0.000000 -18.296979 -14.703039 4.294046 -53.320135 -7.977916 -2.786698 -8.634451 -19.347045 2.000755 0.000000 0.000000 0.000000 17.676581 7.681763 4.212800 60.126122 11.501428 -0.467542 3.840993 19.821536 1.436327 0.000000 0.000000 0.000000 
0.000889 0.942925 0.000455 -0.593871 3.009793 -0.404106 0.412691 -0.061746 -0.642335 3.055351 -0.006178 -5.236795 -2.229704 0.325808 9.618390 0.000000 0.000000 0.000000 -0.431555 0.405911 -4.103609 -0.262036 0.098815 1.719741 -0.035364 -4.123304 10.363009 0.000000 0.000000 0.000000 3.253769 -0.259967 3.402781 -1.302589 0.695591 -3.049469 -3.336723 5.224149 8.527431 9.822718 -3.800193 -18.117453 0.000000 0.000000 0.000000 -18.244389 -15.184046 4.340338 -53.335553 -7.979838 -2.769283 -8.724591 -18.771870 1.935877 0.000000 0.000000 0.000000 17.439674 8.121455 4.633728 60.979630 11.895880 -0.232249 4.527479 19.498084 1.524023 0.000000 0.000000 0.000000 
0.001522 0.943299 0.000699 -0.323894 2.950794 -0.503945 0.318390 -0.099636 -1.091188 2.612398 -0.038867 -4.158943 -2.144574 0.390985 9.450902 0.000000 0.000000 0.000000 -0.516396 0.377550 -3.827999 -0.719928 0.146304 1.472304 0.006448 -4.063037 10.404651 0.000000 0.000000 0.000000 3.179961 -0.251285 3.341488 -1.483380 0.800722 -4.343654 -3.547071 5.580325 9.770986 9.292093 -3.509594 -17.914661 0.000000 0.000000 0.000000 -16.900952 -15.432741 4.471532 -54.211155 -8.528874 -2.770771 -9.292777 -16.660391 1.804209 0.000000 0.000000 0.000000 17.648079 8.856918 5.176281 60.473772 11.975080 -0.365484 5.633983 19.337670 1.675048 0.000000 0.000000 0.000000 
0.002150 0.942985 0.000947 -0.214731 2.724232 -0.312600 0.356926 -0.166885 -1.860446 2.250569 -0.071996 -3.060507 -1.913565 0.603602 9.076321 0.000000 0.000000 0.000000 -0.295408 0.433175 -4.360418 -1.407526 0.261001 2.057341 0.017855 -3.979615 10.135265 0.000000 0.000000 0.000000 3.080961 -0.199756 2.618007 -1.495624 0.786917 -3.483156 -3.617890 6.001183 9.395408 10.262761 -4.043717 -18.012211 0.000000 0.000000 0.000000 -16.512272 -16.235382 4.793190 -54.475334 -8.002118 -2.980531 -9.955529 -17.393351 1.971212 0.000000 0.000000 0.000000 16.804701 9.343780 5.403148 60.879662 11.683985 -0.381402 6.153376 20.169453 1.845260 0.000000 0.000000 0.000000 
0.002459 0.943700 0.000460 -0.270466 2.233900 -0.537608 -0.143597 -0.206590 -2.280906 3.199728 -0.227461 -1.811025 -1.598814 1.052471 8.945387 0.000000 0.000000 0.000000 -0.033903 0.433116 -4.309413 -1.811300 0.322381 2.242615 0.270630 -3.600199 10.332071 0.000000 0.000000 0.000000 3.280037 -0.188872 2.414324 -1.517990 0.794948 -3.608870 -3.709803 6.392084 10.168281 10.856525 -4.363763 -18.315575 0.000000 0.000000 0.000000 -15.932927 -17.037058 5.207170 -54.226700 -8.317967 -2.920349 -11.034422 -17.850942 2.188474 0.000000 0.000000 0.000000 16.181257 9.374467 5.382622 60.531429 11.766086 -0.389861 7.336339 21.585744 2.223208 0.000000 0.000000 0.000000 
0.002350 0.944028 -0.001714 -0.297600 1.490075 -0.682381 -0.079907 -0.208518 -2.294860 3.133548 -0.239156 -1.588569 -1.266554 1.619694 9.090208 0.000000 0.000000 0.000000 0.170022 0.518305 -5.119679 -2.114491 0.436094 3.568244 0.552919 -3.117585 10.290954 0.000000 0.000000 0.000000 3.353309 -0.197720 2.540442 -1.710156 0.870994 -3.504437 -3.712744 6.731517 10.992050 11.557389 -4.690683 -18.995459 0.000000 0.000000 0.000000 -15.202371 -18.238390 5.863258 -54.588203 -9.552970 -2.504822 -10.974530 -19.230804 2.359570 0.000000 0.000000 0.000000 15.944751 9.990961 5.675764 60.671107 13.259915 0.341283 7.679324 22.907789 2.464128 0.000000 0.000000 0.000000 
0.002247 0.944023 -0.006927 -0.444666 0.206636 -0.450361 0.360716 -0.267582 -2.994028 2.633375 -0.224524 -1.119694 -0.655183 2.622449 9.264834 0.000000 0.000000 0.000000 0.515421 0.694799 -6.742796 -2.433255 0.574571 5.130275 1.072337 -2.278522 10.381155 0.000000 0.000000 0.000000 3.359378 -0.254028 3.307112 -1.950484 0.962388 -3.387599 -3.793574 6.908614 11.147027 12.118768 -4.965228 -19.619050 0.000000 0.000000 0.000000 -14.494017 -18.772841 6.259909 -54.491892 -10.612979 -2.083852 -10.325589 -21.984223 2.591436 0.000000 0.000000 0.000000 15.706774 10.695903 5.904796 60.357996 14.419704 0.915006 7.941062 25.737533 2.902728 0.000000 0.000000 0.000000 
0.002347 0.943759 -0.015667 -0.672072 -2.385767 -0.159792 1.251627 -0.342457 -4.123739 1.505423 -0.167839 -0.082220 0.599672 4.619727 9.518850 0.000000 0.000000 0.000000 0.829907 0.936564 -8.879027 -2.494536 0.696032 6.821761 2.223635 -0.464879 10.708004 0.000000 0.000000 0.000000 3.341412 -0.332840 4.442512 -2.207628 1.049810 -3.359508 -3.511291 6.579825 11.637993 12.577487 -5.096536 -21.332667 0.000000 0.000000 0.000000 -13.846113 -19.717625 7.156397 -54.306884 -13.541855 -0.880355 -9.651774 -25.364409 2.937990 0.000000 0.000000 0.000000 15.482649 12.418223 6.372133 59.405010 17.539640 2.409384 9.319229 28.869782 3.620271 0.000000 0.000000 0.000000 
0.002508 0.942995 -0.026161 -0.997465 -6.095700 0.030082 2.606928 -0.349329 -5.072212 -0.163196 -0.008196 0.964163 2.371814 7.400362 9.919811 0.000000 0.000000 0.000000 1.027830 1.284647 -11.749809 -1.953861 0.818874 9.655329 3.865518 2.034945 11.246213 0.000000 0.000000 0.000000 3.209341 -0.434654 6.194933 -2.045644 0.947555 -2.690715 -3.433234 6.438509 10.790876 13.416638 -5.762580 -21.520496 0.000000 0.000000 0.000000 -13.347566 -20.471481 7.962332 -53.704726 -16.384746 0.428400 -8.515136 -29.230701 3.214175 0.000000 0.000000 0.000000 14.678120 14.521630 6.838762 58.416181 20.744482 4.077671 11.391673 32.913754 4.688811 0.000000 0.000000 0.000000 
